# xmcd
#
# Track frame offsets:
#	150
#	15642
#	32027
#	56672
#	68512
#	81942
#	97070
#	110055
#	125700
#	145530
#	157690
#	169390
#
# Disc length: 2539 seconds
#
# Revision: 1
# Processed by: cddbd v1.5PL3 Copyright (c) Steve Scherf et al.
# Submitted via: CDex 1.50Beta5
#
DISCID=9d09e90c
DTITLE=The Frantics - Relax Your Mind
DYEAR=1900
DGENRE=Rock
TTITLE0=Her And Her Mountain
TTITLE1=Lady Of The Night
TTITLE2=Child Of The Universe
TTITLE3=Sweet Mary
TTITLE4=Think About It
TTITLE5=Relax Your Mind
TTITLE6=Just For Awhile
TTITLE7=Stranger
TTITLE8=She
TTITLE9=Great Tomato
TTITLE10=Scitnarf
TTITLE11=Stone Goddess
EXTD=
EXTT0=
EXTT1=
EXTT2=
EXTT3=
EXTT4=
EXTT5=
EXTT6=
EXTT7=
EXTT8=
EXTT9=
EXTT10=
EXTT11=
PLAYORDER=
